# xmcd
#
# Track frame offsets:
#  150
#  49323
#  76365
#  111625
#  124609
#  164245
#  198241
#  234351
#  262563
#  290125
#
# Disc length: 4421 seconds
#
# Revision: 2
# Processed by: cddbd v1.5.2PL0 Copyright (c) Steve Scherf et al.
# Submitted via: Collectorz.com_Music_Collector 6.11
#
DISCID=8f11430a
DTITLE=Eric Clapton - Chicago No Bad Blues (2CDs) [CD2)
DYEAR=1995
DGENRE=Blues
TTITLE0=Double Trouble
TTITLE1=Cocaine
TTITLE2=Layla
TTITLE3=Forever Man
TTITLE4=Further Up On The Road
TTITLE5=Layla
TTITLE6=Ain't Gonna Give Up For Love
TTITLE7=Tearing Us Apart
TTITLE8=Every Day I Got The Blues
TTITLE9=Before You Accuse Me
EXTD=
EXTT0=
EXTT1=
EXTT2=
EXTT3=
EXTT4=
EXTT5=
EXTT6=
EXTT7=
EXTT8=
EXTT9=
PLAYORDER=
